<svg xmlns="http://www.w3.org/2000/svg" width="52.358" height="39.172" viewBox="0 0 52.358 39.172">
  <g id="Group_6335" data-name="Group 6335" transform="translate(14447.179 20684.15)">
    <circle id="Ellipse_31" data-name="Ellipse 31" cx="5.236" cy="5.236" r="5.236" transform="translate(-14445.04 -20655.449)" fill="#602ea6"/>
    <path id="Path_2578" data-name="Path 2578" d="M145.4,120.539c-.125-.012-.251-.019-.378-.019s-.254.007-.378.019a5.235,5.235,0,1,0,.755,0Z" transform="translate(-14566.332 -20775.971)" fill="#602ea6"/>
    <path id="Path_2579" data-name="Path 2579" d="M170.254,120.539c-.125-.012-.25-.019-.378-.019s-.254.007-.378.019a5.235,5.235,0,1,0,.755,0Z" transform="translate(-14572.07 -20775.971)" fill="#602ea6"/>
    <g id="Group_6334" data-name="Group 6334" transform="translate(-14447.179 -20684.15)">
      <path id="Path_6" data-name="Path 6" d="M149.646,107.546a12.762,12.762,0,0,0-1.536-1.147,14.151,14.151,0,0,0-6.633-2.142,3.8,3.8,0,0,0-.537-.038l-.1,0-.141,0-.222,0a14.148,14.148,0,0,0-9.224,3.325,12.754,12.754,0,0,0-1.814-1.319,14.3,14.3,0,0,0-7.392-2,14.884,14.884,0,0,0-3.416.395,23.951,23.951,0,0,1,20.1-14.042,2.816,2.816,0,0,0,1.26-.4,2.823,2.823,0,0,0,1.285.358,23.934,23.934,0,0,1,20.985,14.083,14.862,14.862,0,0,0-3.422-.4A14.107,14.107,0,0,0,149.646,107.546Z" transform="translate(-114.269 -84.814)" fill="#2dffc7"/>
      <path id="Path_7" data-name="Path 7" d="M138.73,91.6a5.683,5.683,0,0,0,1.141.155,21.012,21.012,0,0,1,13.912,5.9,21.409,21.409,0,0,1,1.987,2.207,16.851,16.851,0,0,0-7.449,2.537,16.991,16.991,0,0,0-7.866-2.571,6.568,6.568,0,0,0-.825-.052l-.165,0h-.036l-.128,0h-.164a17.08,17.08,0,0,0-9.208,2.621q-.167-.106-.338-.209a16.934,16.934,0,0,0-7.089-2.323,21.282,21.282,0,0,1,1.9-2.126,21.056,21.056,0,0,1,13.218-5.95,5.7,5.7,0,0,0,1.107-.189m-.086-8.4a1.42,1.42,0,0,0-1.421,1.421v1.513a26.752,26.752,0,0,0-24.254,21.144.5.5,0,0,0,.491.6.471.471,0,0,0,.3-.106,11.232,11.232,0,0,1,6.981-2.33,11.529,11.529,0,0,1,5.93,1.6,9.366,9.366,0,0,1,2.865,2.645.493.493,0,0,0,.814,0,10.688,10.688,0,0,1,8.79-4.242h.131v0l.087,0v0l.235-.005c-.02,0-.039,0,.04,0a.926.926,0,0,1,.208.024,11.347,11.347,0,0,1,5.44,1.714,9.31,9.31,0,0,1,2.646,2.5.494.494,0,0,0,.817,0,10.686,10.686,0,0,1,8.789-4.242,11.277,11.277,0,0,1,6.969,2.321.5.5,0,0,0,.315.112.491.491,0,0,0,.489-.592,26.738,26.738,0,0,0-25.24-21.19v-1.43a1.444,1.444,0,0,0-1.124-1.428A1.523,1.523,0,0,0,138.644,83.2Z" transform="translate(-112.958 -83.204)" fill="#9450f2"/>
    </g>
  </g>
</svg>
